<svg width="300" height="120" viewBox="0 0 300 120" xmlns="http://www.w3.org/2000/svg">
  <defs>
    <linearGradient id="logoGradient" x1="0%" y1="0%" x2="100%" y2="0%">
      <stop offset="0%" style="stop-color:#60A5FA;stop-opacity:1" />
      <stop offset="50%" style="stop-color:#3B82F6;stop-opacity:1" />
      <stop offset="100%" style="stop-color:#8B5CF6;stop-opacity:1" />
    </linearGradient>
    <linearGradient id="textGradient" x1="0%" y1="0%" x2="100%" y2="0%">
      <stop offset="0%" style="stop-color:#60A5FA;stop-opacity:1" />
      <stop offset="100%" style="stop-color:#8B5CF6;stop-opacity:1" />
    </linearGradient>
    <filter id="glow">
      <feGaussianBlur stdDeviation="3" result="coloredBlur"/>
      <feMerge> 
        <feMergeNode in="coloredBlur"/>
        <feMergeNode in="SourceGraphic"/>
      </feMerge>
    </filter>
  </defs>
  
  <!-- Main Logo Shape (Infinity/S) -->
  <path 
    d="M20 60 C20 30, 40 20, 60 40 C80 60, 100 50, 100 60 C100 90, 80 100, 60 80 C40 60, 20 70, 20 60 Z" 
    fill="url(#logoGradient)" 
    filter="url(#glow)"
  />
  
  <!-- Spark/Pixel Effect -->
  <g opacity="0.8">
    <rect x="85" y="45" width="4" height="4" fill="#8B5CF6" rx="1"/>
    <rect x="90" y="50" width="3" height="3" fill="#8B5CF6" rx="1"/>
    <rect x="95" y="40" width="2" height="2" fill="#A855F7" rx="1"/>
    <rect x="88" y="55" width="3" height="3" fill="#8B5CF6" rx="1"/>
    <rect x="92" y="35" width="2" height="2" fill="#A855F7" rx="1"/>
    <rect x="97" y="45" width="2" height="2" fill="#C084FC" rx="1"/>
  </g>
  
  <!-- Additional Spark Details -->
  <g opacity="0.6">
    <rect x="82" y="48" width="2" height="2" fill="#8B5CF6" rx="1"/>
    <rect x="94" y="52" width="2" height="2" fill="#A855F7" rx="1"/>
    <rect x="89" y="38" width="2" height="2" fill="#C084FC" rx="1"/>
  </g>
  
  <!-- Logo Text -->
  <text x="140" y="45" font-family="Inter, sans-serif" font-size="28" font-weight="bold" fill="url(#textGradient)">
    WebSpark Creative
  </text>
  <text x="140" y="70" font-family="Inter, sans-serif" font-size="14" font-weight="normal" fill="#6B7280">
    Agência Digital
  </text>
</svg>
